<svg width="31" height="25" viewBox="0 0 31 25" fill="none" xmlns="http://www.w3.org/2000/svg">
<path id="Vector" d="M8.79821 7.14174H22.3746V8.49938H8.79821V7.14174ZM8.79821 12.5723H18.3017V11.2147H8.79821V12.5723ZM30.5205 9.85702C30.5407 11.3435 30.2004 12.8128 29.529 14.1392C28.8575 15.4656 27.8748 16.6096 26.6648 17.4734L15.5864 24.7911V19.3605H10.1558C7.63536 19.3605 5.21811 18.3593 3.43586 16.577C1.6536 14.7948 0.652344 12.3775 0.652344 9.85702C0.652344 7.33654 1.6536 4.91928 3.43586 3.13703C5.21811 1.35477 7.63536 0.353516 10.1558 0.353516H21.017C23.5375 0.353516 25.9547 1.35477 27.737 3.13703C29.5192 4.91928 30.5205 7.33654 30.5205 9.85702ZM27.8052 9.85702C27.8052 8.05667 27.09 6.33006 25.817 5.05703C24.544 3.78399 22.8173 3.0688 21.017 3.0688H10.1558C8.3555 3.0688 6.62889 3.78399 5.35585 5.05703C4.08282 6.33006 3.36763 8.05667 3.36763 9.85702C3.36763 11.6574 4.08282 13.384 5.35585 14.657C6.62889 15.9301 8.3555 16.6452 10.1558 16.6452H18.3017V19.7407L25.0899 15.2876C25.9502 14.6716 26.6471 13.855 27.1202 12.9086C27.5934 11.9623 27.8285 10.9148 27.8052 9.85702Z" fill="#8F9BBA"/>
</svg>
