<svg width="61" height="61" viewBox="0 0 61 61" fill="none" xmlns="http://www.w3.org/2000/svg">
<path d="M42.8738 12.7511L53.2537 2.37109H5.64375C4.86117 2.39066 4.11724 2.71535 3.57075 3.27586C3.02426 3.83636 2.71851 4.58827 2.71875 5.37109V55.0211C2.71875 55.8167 3.03482 56.5798 3.59743 57.1424C4.16004 57.705 4.9231 58.0211 5.71875 58.0211H55.3687C56.1644 58.0211 56.9275 57.705 57.4901 57.1424C58.0527 56.5798 58.3687 55.8167 58.3687 55.0211V17.8661L53.2537 22.9811M53.2537 22.9811L43.0237 12.7511L25.1288 30.4511L19.9688 45.8411L35.4038 40.6211L53.2537 22.9811Z" stroke="white" stroke-width="4" stroke-linecap="round" stroke-linejoin="round"/>
</svg>
