<svg width="46" height="24" viewBox="0 0 46 24" fill="none" xmlns="http://www.w3.org/2000/svg">
<g id="Group ">
<g id="Group 15349">
<ellipse id="Ellipse 672" cx="12.329" cy="11.8974" rx="11.6278" ry="11.6278" fill="#4E8ADD"/>
<g id="Group 15348">
<path id="Vector 3" d="M17.9351 10.8011H20.1277C20.7199 13.2731 19.7918 16.7151 19.2537 18.1272C19.2537 18.1272 17.3258 17.9622 16.1088 18.1272C14.8817 18.2935 14.2736 18.7644 13.0532 18.9747C10.9759 19.3326 7.65566 18.9747 7.65566 18.9747C6.47802 18.7249 6.57021 17.577 6.76351 17.0343C5.24685 16.6774 5.48354 15.3729 5.79147 14.7653C4.50959 14.0231 4.91981 12.685 5.28516 12.1087C4.97592 12.0806 4.35742 11.7798 4.35742 10.8011C4.35742 9.82254 4.97592 9.46599 5.28516 9.41005H11.9897C11.3431 8.53859 10.0415 6.44991 10.0077 5.06683C9.974 3.68375 10.865 3.14116 11.3147 3.04276C11.5537 2.98647 12.1413 3.15219 12.5799 4.2654C13.0184 5.37861 16.3328 9.0864 17.9351 10.8011Z" fill="#CCDEF5"/>
<path id="Vector 4 (Stroke)" fill-rule="evenodd" clip-rule="evenodd" d="M11.2726 2.86849C11.6424 2.78138 12.2939 3.05503 12.7447 4.19944C12.8443 4.45226 13.1191 4.87473 13.518 5.40762C13.9124 5.93452 14.4153 6.55291 14.9561 7.19185C16.0138 8.44165 17.2111 9.76395 18.0115 10.6221H20.1265C20.2091 10.6221 20.2808 10.6787 20.3001 10.759C20.6043 12.029 20.5162 13.535 20.2894 14.8905C20.062 16.2488 19.6923 17.4737 19.4192 18.1902C19.3909 18.2646 19.3166 18.3112 19.2372 18.3044L19.2321 18.304L19.2161 18.3027L19.1537 18.2978C19.0992 18.2937 19.0198 18.2879 18.9207 18.2815C18.7224 18.2687 18.4453 18.2534 18.1306 18.2431C17.4983 18.2226 16.7245 18.2231 16.1316 18.3035C15.5377 18.384 15.0938 18.5377 14.6377 18.7018C14.616 18.7097 14.5942 18.7175 14.5724 18.7254C14.136 18.8827 13.6802 19.047 13.0823 19.15C12.024 19.3324 10.6589 19.3315 9.56692 19.2867C9.01915 19.2642 8.53675 19.2305 8.19123 19.2024C8.01843 19.1883 7.87976 19.1757 7.78415 19.1665L7.67412 19.1556L7.6454 19.1527L7.63605 19.1517L7.61722 19.1497C7.29421 19.0811 7.04735 18.9474 6.86598 18.7692C6.68503 18.5915 6.57812 18.3771 6.5215 18.1585C6.43103 17.8093 6.46635 17.4408 6.53844 17.1578C6.22505 17.0604 5.98299 16.918 5.80255 16.7418C5.58779 16.532 5.46948 16.2831 5.41724 16.0292C5.32893 15.6001 5.42845 15.1559 5.56262 14.8331C4.96907 14.4349 4.75343 13.8969 4.74097 13.3786C4.73055 12.9455 4.86118 12.532 5.0138 12.2254C4.86902 12.1708 4.71324 12.0779 4.57545 11.9345C4.34647 11.6963 4.17773 11.3303 4.17773 10.8006C4.17773 9.72702 4.86681 9.30359 5.25218 9.23387C5.26266 9.23198 5.2733 9.23102 5.28395 9.23102H11.6411C11.3318 8.78551 10.9451 8.16966 10.6087 7.5109C10.1963 6.70309 9.846 5.80474 9.8281 5.07063C9.79197 3.58926 10.7553 2.98166 11.2753 2.86786L11.3135 3.04221L11.2726 2.86849ZM5.38514 12.2867C5.23238 12.5575 5.08794 12.9594 5.09781 13.37C5.10808 13.7969 5.28392 14.2414 5.82161 14.5754H6.16063C6.16063 14.5754 6.42669 14.5272 6.4474 14.6236C6.4681 14.7199 6.16063 14.8331 6.16063 14.8331L5.91348 14.9208C5.78722 15.2019 5.69278 15.5973 5.76687 15.9573C5.80655 16.1501 5.89419 16.3323 6.05199 16.4864C6.20186 16.6328 6.42318 16.7619 6.74669 16.846C6.74669 16.846 7.30859 16.69 7.34772 16.7805C7.38686 16.871 6.90667 17.1657 6.90667 17.1657C6.83118 17.4138 6.78687 17.7595 6.86704 18.069C6.91042 18.2365 6.98918 18.3899 7.11612 18.5146C7.24123 18.6375 7.42162 18.7409 7.68268 18.7977L7.71037 18.8005L7.8182 18.8112C7.91228 18.8202 8.04924 18.8327 8.22017 18.8466C8.56211 18.8744 9.03961 18.9078 9.58157 18.9301C10.6691 18.9747 12.0027 18.9739 13.0217 18.7983C13.588 18.7007 14.0179 18.5458 14.456 18.3879C14.4762 18.3806 14.4965 18.3733 14.5168 18.366C14.9767 18.2005 15.4503 18.0356 16.0836 17.9498C16.7077 17.8652 17.5063 17.8657 18.1422 17.8864C18.4616 17.8968 18.7425 17.9123 18.9437 17.9253C19.0181 17.9301 19.0817 17.9346 19.1323 17.9383C19.392 17.229 19.7269 16.0888 19.9373 14.8316C20.1526 13.5454 20.2347 12.1533 19.9839 10.9791H17.9339C17.8845 10.9791 17.8373 10.9586 17.8035 10.9225C17.0009 10.0636 15.7697 8.70572 14.6836 7.42245C14.1407 6.78095 13.6327 6.1565 13.2322 5.62152C12.8362 5.09251 12.5323 4.63405 12.4126 4.33027C11.9863 3.24826 11.4626 3.19046 11.3544 3.21593L11.3517 3.21658C10.9723 3.2996 10.1536 3.77714 10.1849 5.06193C10.2008 5.7109 10.5181 6.54844 10.9267 7.3486C11.332 8.14263 11.8136 8.87428 12.1319 9.30315C12.172 9.35731 12.1783 9.42949 12.148 9.48973C12.1176 9.54996 12.056 9.58797 11.9885 9.58797H5.30127C5.06076 9.6392 4.53468 9.93475 4.53468 10.8006C4.53468 11.2495 4.6752 11.5232 4.83278 11.6871C4.99105 11.8518 5.17753 11.9173 5.29275 11.9297C5.29275 11.9297 5.67893 11.9735 5.7775 11.9735C5.87607 11.9735 6.16063 12.1082 6.16063 12.1082L5.38514 12.2867Z" fill="#0A66C2"/>
</g>
</g>
<g id="Group 15350">
<ellipse id="Ellipse 674" cx="33.6884" cy="11.8974" rx="11.6278" ry="11.6278" fill="#D17655" stroke="white" stroke-width="0.461538"/>
<path id="Union" d="M33.6954 20.2967L29.0225 15.4851L27.1249 13.4616C27.1249 13.4616 25.7207 11.5507 25.7207 10.2951C25.7207 7.93662 27.6339 6.02344 29.9933 6.02344C31.5751 6.02344 32.9573 6.88493 33.6954 8.16353C34.4336 6.88493 35.8157 6.02344 37.3975 6.02344C39.757 6.02344 41.6701 7.93662 41.6701 10.2951C41.6701 11.5507 40.2659 13.4616 40.2659 13.4616L38.0564 15.747L33.6954 20.2967Z" fill="#FDF3F0" stroke="#792A0E" stroke-width="0.307692"/>
</g>
</g>
</svg>
