<svg width="25" height="27" viewBox="0 0 25 27" fill="none" xmlns="http://www.w3.org/2000/svg">
<path id="Vector" d="M22.8871 12.7576L17.9524 7.82286C16.9824 6.85152 16.2521 5.6675 15.8194 4.36474L15.201 2.50947C14.9688 1.8193 14.5262 1.21924 13.9354 0.793639C13.3445 0.368043 12.6351 0.138312 11.907 0.136742C11.4512 0.135081 10.9995 0.223212 10.5778 0.396101C10.1561 0.568989 9.77253 0.823251 9.44907 1.14437C9.12561 1.46549 8.86857 1.84717 8.69262 2.26763C8.51666 2.68808 8.42525 3.13908 8.4236 3.59487V5.00841C8.42641 6.23049 8.62235 7.44445 9.00416 8.60536L9.54686 10.2335H3.52669C2.81707 10.2335 2.13651 10.5154 1.63474 11.0171C1.13296 11.5189 0.851064 12.1995 0.851064 12.9091C0.852806 13.3452 0.959163 13.7746 1.1612 14.1611C1.36325 14.5476 1.65507 14.88 2.01219 15.1304C1.65475 15.3745 1.3622 15.702 1.15988 16.0847C0.957556 16.4673 0.851559 16.8935 0.851064 17.3264C0.841035 17.8596 0.989099 18.3839 1.27659 18.8331C1.56408 19.2823 1.97813 19.6363 2.46654 19.8506C2.23967 20.2328 2.11777 20.6682 2.11315 21.1127C2.11206 21.7968 2.37307 22.4554 2.84254 22.953C3.31202 23.4507 3.95428 23.7496 4.63733 23.7883V23.965C4.63733 24.6746 4.91923 25.3552 5.421 25.8569C5.92278 26.3587 6.60334 26.6406 7.31296 26.6406H16.766C18.3336 26.6392 19.8797 26.2764 21.2843 25.5805L21.6755 25.3785H24.8308V12.7576H22.8871ZM22.3066 22.8543H21.0445L20.1232 23.3213C19.0666 23.8408 17.9055 24.1128 16.7281 24.1164H8.07021C7.78858 24.1276 7.51131 24.0443 7.28258 23.8796C7.05384 23.7149 6.88682 23.4784 6.80812 23.2077L6.4926 22.1097L5.41983 21.5923C5.17274 21.4916 4.9639 21.3152 4.82332 21.0885C4.68273 20.8617 4.61761 20.5962 4.63733 20.3302L4.85189 19.0681L3.8927 18.1341C3.68401 17.9303 3.55237 17.6605 3.52015 17.3706C3.48794 17.0807 3.55715 16.7886 3.71601 16.5439L4.54898 15.1682L3.62766 13.7799C3.57494 13.7159 3.53566 13.6418 3.51215 13.5623C3.48863 13.4827 3.48137 13.3992 3.49079 13.3168C3.50021 13.2344 3.52612 13.1547 3.56698 13.0824C3.60784 13.0102 3.66282 12.947 3.72863 12.8965C3.84846 12.7967 4.00216 12.747 4.15774 12.7576H13.0555L11.4021 7.81024C11.1007 6.90689 10.9472 5.96074 10.9478 5.00841V3.60749C10.9542 3.35846 11.0559 3.12139 11.2321 2.94524C11.4082 2.76909 11.6453 2.66731 11.8943 2.66092C12.0922 2.66107 12.2851 2.72324 12.4459 2.8387C12.6066 2.95416 12.7271 3.11709 12.7904 3.30459L13.472 5.1851C14.0165 6.84463 14.9364 8.35624 16.1602 9.60241L21.8396 15.2818H22.3066V22.8543Z" fill="#8F9BBA"/>
</svg>
