<svg width="1057" height="299" viewBox="0 0 1057 299" fill="none" xmlns="http://www.w3.org/2000/svg">
<g clip-path="url(#clip0_1059_7598)">
<path d="M613.976 121.4L584.28 211H566.616L544.472 144.696L521.944 211H504.152L474.456 121.4H491.736L514.008 189.496L537.176 121.4H552.536L575.192 189.88L598.104 121.4H613.976ZM651.591 211.896C644.679 211.896 638.45 210.403 632.903 207.416C627.356 204.429 623.004 200.291 619.847 195C616.775 189.624 615.239 183.565 615.239 176.824C615.239 170.083 616.775 164.067 619.847 158.776C623.004 153.485 627.356 149.347 632.903 146.36C638.45 143.373 644.679 141.88 651.591 141.88C658.588 141.88 664.86 143.373 670.407 146.36C675.954 149.347 680.263 153.485 683.335 158.776C686.492 164.067 688.071 170.083 688.071 176.824C688.071 183.565 686.492 189.624 683.335 195C680.263 200.291 675.954 204.429 670.407 207.416C664.86 210.403 658.588 211.896 651.591 211.896ZM651.591 198.2C657.479 198.2 662.343 196.237 666.183 192.312C670.023 188.387 671.943 183.224 671.943 176.824C671.943 170.424 670.023 165.261 666.183 161.336C662.343 157.411 657.479 155.448 651.591 155.448C645.703 155.448 640.839 157.411 636.999 161.336C633.244 165.261 631.367 170.424 631.367 176.824C631.367 183.224 633.244 188.387 636.999 192.312C640.839 196.237 645.703 198.2 651.591 198.2ZM718.603 152.632C723.211 145.464 731.318 141.88 742.923 141.88V157.112C741.558 156.856 740.32 156.728 739.211 156.728C732.982 156.728 728.118 158.563 724.619 162.232C721.12 165.816 719.371 171.021 719.371 177.848V211H703.371V142.648H718.603V152.632ZM784.4 181.688L772.496 192.952V211H756.496V116.024H772.496V173.368L805.648 142.648H824.848L796.304 171.32L827.536 211H808.08L784.4 181.688Z" fill="#F5F5F5"/>
<path d="M411 95.603C402.103 97.9755 387.868 104.5 380.75 111.618C374.881 117.487 357.025 154.917 348.721 172.118C345.755 178.642 338.044 191.691 330.926 191.691C323.809 191.691 318.471 182.794 311.353 172.118L282.882 129.412C279.917 125.26 271.138 116.6 259.75 115.176C248.362 113.753 239.583 118.735 231.279 131.191C222.976 143.647 190.353 211.265 190.353 211.265C186.794 219.569 177.659 234.397 169 234.397C160.103 234.397 151.206 216.603 147.647 211.265C144.088 205.926 113.838 143.647 113.838 143.647C108.5 135.343 96.7559 118.024 92.4853 115.176C87.1471 111.618 78.6765 103.603 68 103.603C57.3235 103.603 51.5588 102.721 48 106.279" stroke="url(#paint0_linear_1059_7598)" stroke-width="28" stroke-linecap="round"/>
</g>
<defs>
<linearGradient id="paint0_linear_1059_7598" x1="229.5" y1="234.397" x2="364.5" y2="50.603" gradientUnits="userSpaceOnUse">
<stop stop-color="#61A9FD"/>
<stop offset="1" stop-color="#61A9FD" stop-opacity="0"/>
</linearGradient>
<clipPath id="clip0_1059_7598">
<rect width="1057" height="299" fill="white"/>
</clipPath>
</defs>
</svg>
