<svg width="392" height="168" viewBox="0 0 392 168" fill="none" xmlns="http://www.w3.org/2000/svg">
<path d="M377 15.0001C368.103 17.3726 353.868 23.8971 346.75 31.0148C340.881 36.8841 323.025 74.3138 314.721 91.5148C311.755 98.0393 304.044 111.088 296.926 111.088C289.809 111.088 284.471 102.191 277.353 91.5148L248.882 48.8089C245.917 44.6569 237.138 35.9971 225.75 34.5736C214.362 33.1501 205.583 38.1324 197.279 50.5883C188.976 63.0442 156.353 130.662 156.353 130.662C152.794 138.966 143.659 153.794 135 153.794C126.103 153.794 117.206 136 113.647 130.662C110.088 125.324 79.8382 63.0441 79.8382 63.0441C74.5 54.7402 62.7559 37.4207 58.4853 34.5736C53.1471 31.0147 44.6765 23.0001 34 23.0001C23.3235 23.0001 17.5588 22.1177 14 25.6765" stroke="url(#paint0_linear_1059_7587)" stroke-width="28" stroke-linecap="round"/>
<defs>
<linearGradient id="paint0_linear_1059_7587" x1="195.5" y1="153.794" x2="330.5" y2="-29.9999" gradientUnits="userSpaceOnUse">
<stop stop-color="#61A9FD"/>
<stop offset="1" stop-color="#61A9FD" stop-opacity="0"/>
</linearGradient>
</defs>
</svg>
