<svg width="27" height="21" viewBox="0 0 27 21" fill="none" xmlns="http://www.w3.org/2000/svg">
<path id="Vector" d="M26.86 9.4657L21.1445 18.1443H18.1814L23.1406 10.7055H8.26301C7.62475 10.6923 6.99015 10.8051 6.39546 11.0372C5.80077 11.2694 5.25765 11.6164 4.79712 12.0585C4.33659 12.5006 3.96768 13.0291 3.71145 13.6139C3.45522 14.1986 3.31671 14.8281 3.30382 15.4663V15.6647C3.30099 16.1863 3.38049 16.7052 3.53938 17.202L4.69239 20.6239H2.06402L1.15896 17.8715C0.936909 17.1315 0.824137 16.363 0.824219 15.5903C0.843819 13.6303 1.63619 11.7573 3.02912 10.3783C4.42204 8.99931 6.30294 8.2258 8.26301 8.2259H23.1406L18.1814 0.787109H21.1445L26.86 9.4657Z" fill="#8F9BBA"/>
</svg>
