<svg width="600" height="601" viewBox="0 0 600 601" fill="none" xmlns="http://www.w3.org/2000/svg">
<path d="M481.5 231C472.603 233.372 458.368 239.897 451.25 247.015C445.381 252.884 427.525 290.314 419.221 307.515C416.255 314.039 408.544 327.088 401.426 327.088C394.309 327.088 388.971 318.191 381.853 307.515L353.382 264.809C350.417 260.657 341.638 251.997 330.25 250.573C318.862 249.15 310.083 254.132 301.779 266.588C293.476 279.044 260.853 346.662 260.853 346.662C257.294 354.965 248.159 369.794 239.5 369.794C230.603 369.794 221.706 352 218.147 346.662C214.588 341.323 184.338 279.044 184.338 279.044C179 270.74 167.256 253.42 162.985 250.573C157.647 247.014 149.176 239 138.5 239C127.824 239 122.059 238.117 118.5 241.676" stroke="url(#paint0_linear_1737_25277)" stroke-width="28" stroke-linecap="round"/>
<defs>
<linearGradient id="paint0_linear_1737_25277" x1="300" y1="369.794" x2="435" y2="186" gradientUnits="userSpaceOnUse">
<stop stop-color="#61A9FD"/>
<stop offset="1" stop-color="#61A9FD" stop-opacity="0"/>
</linearGradient>
</defs>
</svg>
