<svg width="1437" height="600" viewBox="0 0 1437 600" fill="none" xmlns="http://www.w3.org/2000/svg">
<path d="M692.976 256.4L663.28 346H645.616L623.472 279.696L600.944 346H583.152L553.456 256.4H570.736L593.008 324.496L616.176 256.4H631.536L654.192 324.88L677.104 256.4H692.976ZM730.591 346.896C723.679 346.896 717.45 345.403 711.903 342.416C706.356 339.429 702.004 335.291 698.847 330C695.775 324.624 694.239 318.565 694.239 311.824C694.239 305.083 695.775 299.067 698.847 293.776C702.004 288.485 706.356 284.347 711.903 281.36C717.45 278.373 723.679 276.88 730.591 276.88C737.588 276.88 743.86 278.373 749.407 281.36C754.954 284.347 759.263 288.485 762.335 293.776C765.492 299.067 767.071 305.083 767.071 311.824C767.071 318.565 765.492 324.624 762.335 330C759.263 335.291 754.954 339.429 749.407 342.416C743.86 345.403 737.588 346.896 730.591 346.896ZM730.591 333.2C736.479 333.2 741.343 331.237 745.183 327.312C749.023 323.387 750.943 318.224 750.943 311.824C750.943 305.424 749.023 300.261 745.183 296.336C741.343 292.411 736.479 290.448 730.591 290.448C724.703 290.448 719.839 292.411 715.999 296.336C712.244 300.261 710.367 305.424 710.367 311.824C710.367 318.224 712.244 323.387 715.999 327.312C719.839 331.237 724.703 333.2 730.591 333.2ZM797.603 287.632C802.211 280.464 810.318 276.88 821.923 276.88V292.112C820.558 291.856 819.32 291.728 818.211 291.728C811.982 291.728 807.118 293.563 803.619 297.232C800.12 300.816 798.371 306.021 798.371 312.848V346H782.371V277.648H797.603V287.632ZM863.4 316.688L851.496 327.952V346H835.496V251.024H851.496V308.368L884.648 277.648H903.848L875.304 306.32L906.536 346H887.08L863.4 316.688ZM1048.48 256.4L1018.78 346H1001.12L978.972 279.696L956.444 346H938.652L908.956 256.4H926.236L948.508 324.496L971.676 256.4H987.036L1009.69 324.88L1032.6 256.4H1048.48ZM1081.48 276.88C1091.55 276.88 1099.23 279.312 1104.52 284.176C1109.9 288.955 1112.59 296.208 1112.59 305.936V346H1097.48V337.68C1095.52 340.667 1092.7 342.971 1089.04 344.592C1085.45 346.128 1081.1 346.896 1075.98 346.896C1070.86 346.896 1066.38 346.043 1062.54 344.336C1058.7 342.544 1055.71 340.112 1053.58 337.04C1051.53 333.883 1050.51 330.341 1050.51 326.416C1050.51 320.272 1052.77 315.365 1057.29 311.696C1061.9 307.941 1069.11 306.064 1078.92 306.064H1096.59V305.04C1096.59 300.261 1095.14 296.592 1092.24 294.032C1089.42 291.472 1085.2 290.192 1079.56 290.192C1075.72 290.192 1071.93 290.789 1068.17 291.984C1064.5 293.179 1061.39 294.843 1058.83 296.976L1052.56 285.328C1056.14 282.597 1060.45 280.507 1065.48 279.056C1070.52 277.605 1075.85 276.88 1081.48 276.88ZM1079.31 335.248C1083.32 335.248 1086.86 334.352 1089.93 332.56C1093.09 330.683 1095.31 328.037 1096.59 324.624V316.688H1080.08C1070.86 316.688 1066.25 319.717 1066.25 325.776C1066.25 328.677 1067.4 330.981 1069.71 332.688C1072.01 334.395 1075.21 335.248 1079.31 335.248ZM1195.87 277.648L1166.56 346H1150.05L1120.73 277.648H1137.38L1158.62 328.336L1180.51 277.648H1195.87ZM1268.25 312.208C1268.25 313.317 1268.17 314.896 1268 316.944H1214.36C1215.3 321.979 1217.73 325.989 1221.66 328.976C1225.67 331.877 1230.62 333.328 1236.51 333.328C1244.02 333.328 1250.2 330.853 1255.07 325.904L1263.64 335.76C1260.57 339.429 1256.69 342.203 1252 344.08C1247.3 345.957 1242.01 346.896 1236.12 346.896C1228.61 346.896 1222 345.403 1216.28 342.416C1210.57 339.429 1206.13 335.291 1202.97 330C1199.9 324.624 1198.36 318.565 1198.36 311.824C1198.36 305.168 1199.86 299.195 1202.84 293.904C1205.92 288.528 1210.14 284.347 1215.52 281.36C1220.89 278.373 1226.95 276.88 1233.69 276.88C1240.35 276.88 1246.28 278.373 1251.48 281.36C1256.77 284.261 1260.87 288.4 1263.77 293.776C1266.76 299.067 1268.25 305.211 1268.25 312.208ZM1233.69 289.68C1228.57 289.68 1224.22 291.216 1220.64 294.288C1217.14 297.275 1215 301.285 1214.24 306.32H1253.02C1252.34 301.371 1250.25 297.36 1246.75 294.288C1243.25 291.216 1238.9 289.68 1233.69 289.68Z" fill="white"/>
<path d="M490 231C481.103 233.372 466.868 239.897 459.75 247.015C453.881 252.884 436.025 290.314 427.721 307.515C424.755 314.039 417.044 327.088 409.926 327.088C402.809 327.088 397.471 318.191 390.353 307.515L361.882 264.809C358.917 260.657 350.138 251.997 338.75 250.573C327.362 249.15 318.583 254.132 310.279 266.588C301.976 279.044 269.353 346.662 269.353 346.662C265.794 354.965 256.659 369.794 248 369.794C239.103 369.794 230.206 352 226.647 346.662C223.088 341.323 192.838 279.044 192.838 279.044C187.5 270.74 175.756 253.42 171.485 250.573C166.147 247.014 157.676 239 147 239C136.324 239 130.559 238.117 127 241.676" stroke="url(#paint0_linear_1737_23388)" stroke-width="28" stroke-linecap="round"/>
<defs>
<linearGradient id="paint0_linear_1737_23388" x1="308.5" y1="369.794" x2="443.5" y2="186" gradientUnits="userSpaceOnUse">
<stop stop-color="#61A9FD"/>
<stop offset="1" stop-color="#61A9FD" stop-opacity="0"/>
</linearGradient>
</defs>
</svg>
