<svg width="466" height="215" viewBox="0 0 466 215" fill="none" xmlns="http://www.w3.org/2000/svg">
<path d="M325.294 29.2936L308.672 79.4453H298.785L286.391 42.333L273.781 79.4453H263.822L247.201 29.2936H256.873L269.339 67.4089L282.307 29.2936H290.904L303.585 67.6238L316.41 29.2936H325.294ZM346.348 79.9468C342.479 79.9468 338.993 79.111 335.888 77.4392C332.783 75.7675 330.347 73.451 328.58 70.4896C326.861 67.4805 326.001 64.0893 326.001 60.316C326.001 56.5427 326.861 53.1754 328.58 50.214C330.347 47.2527 332.783 44.9361 335.888 43.2644C338.993 41.5927 342.479 40.7568 346.348 40.7568C350.265 40.7568 353.775 41.5927 356.88 43.2644C359.985 44.9361 362.397 47.2527 364.116 50.214C365.883 53.1754 366.767 56.5427 366.767 60.316C366.767 64.0893 365.883 67.4805 364.116 70.4896C362.397 73.451 359.985 75.7675 356.88 77.4392C353.775 79.111 350.265 79.9468 346.348 79.9468ZM346.348 72.2808C349.644 72.2808 352.366 71.1822 354.516 68.9851C356.665 66.788 357.74 63.8983 357.74 60.316C357.74 56.7337 356.665 53.844 354.516 51.6469C352.366 49.4498 349.644 48.3512 346.348 48.3512C343.052 48.3512 340.33 49.4498 338.181 51.6469C336.079 53.844 335.028 56.7337 335.028 60.316C335.028 63.8983 336.079 66.788 338.181 68.9851C340.33 71.1822 343.052 72.2808 346.348 72.2808ZM383.857 46.775C386.436 42.7629 390.973 40.7568 397.469 40.7568V49.2826C396.705 49.1393 396.013 49.0677 395.392 49.0677C391.905 49.0677 389.182 50.0946 387.224 52.1484C385.266 54.1545 384.287 57.0681 384.287 60.8892V79.4453H375.331V41.1867H383.857V46.775ZM420.685 63.0385L414.022 69.3433V79.4453H405.067V26.2845H414.022V58.3816L432.578 41.1867H443.325L427.348 57.2353L444.83 79.4453H433.94L420.685 63.0385ZM325.294 136.294L308.672 186.445H298.785L286.391 149.333L273.781 186.445H263.822L247.201 136.294H256.873L269.339 174.409L282.307 136.294H290.904L303.585 174.624L316.41 136.294H325.294ZM343.769 147.757C349.405 147.757 353.704 149.118 356.665 151.841C359.674 154.515 361.179 158.575 361.179 164.02V186.445H352.725V181.788C351.626 183.46 350.05 184.75 347.996 185.657C345.99 186.517 343.554 186.947 340.688 186.947C337.822 186.947 335.315 186.469 333.165 185.514C331.016 184.511 329.344 183.15 328.15 181.43C327.004 179.663 326.431 177.681 326.431 175.484C326.431 172.045 327.696 169.298 330.228 167.244C332.807 165.143 336.843 164.092 342.336 164.092H352.223V163.519C352.223 160.844 351.411 158.79 349.787 157.357C348.211 155.924 345.847 155.208 342.694 155.208C340.545 155.208 338.419 155.542 336.318 156.211C334.264 156.88 332.521 157.811 331.088 159.005L327.577 152.485C329.583 150.957 331.995 149.787 334.813 148.975C337.631 148.163 340.617 147.757 343.769 147.757ZM342.551 180.427C344.796 180.427 346.778 179.926 348.498 178.923C350.265 177.872 351.507 176.391 352.223 174.481V170.039H342.981C337.822 170.039 335.243 171.734 335.243 175.125C335.243 176.749 335.888 178.039 337.178 178.994C338.467 179.949 340.258 180.427 342.551 180.427ZM407.795 148.187L391.388 186.445H382.146L365.739 148.187H375.053L386.946 176.558L399.198 148.187H407.795ZM448.309 167.531C448.309 168.152 448.261 169.035 448.166 170.182H418.146C418.672 173 420.033 175.245 422.23 176.916C424.475 178.54 427.245 179.352 430.541 179.352C434.744 179.352 438.207 177.967 440.929 175.197L445.73 180.714C444.01 182.768 441.837 184.32 439.21 185.371C436.583 186.421 433.622 186.947 430.326 186.947C426.123 186.947 422.421 186.111 419.221 184.439C416.021 182.768 413.537 180.451 411.77 177.49C410.05 174.481 409.191 171.089 409.191 167.316C409.191 163.59 410.026 160.247 411.698 157.286C413.418 154.277 415.782 151.936 418.791 150.264C421.8 148.593 425.191 147.757 428.965 147.757C432.69 147.757 436.01 148.593 438.923 150.264C441.885 151.888 444.177 154.205 445.801 157.214C447.473 160.175 448.309 163.614 448.309 167.531ZM428.965 154.921C426.099 154.921 423.663 155.781 421.657 157.501C419.699 159.172 418.505 161.417 418.075 164.235H439.783C439.401 161.465 438.231 159.22 436.273 157.501C434.314 155.781 431.878 154.921 428.965 154.921Z" fill="#F5F5F5"/>
<path d="M211.682 69.0697C206.702 70.3977 198.735 74.0497 194.751 78.0336C191.465 81.3189 181.471 102.269 176.823 111.897C175.163 115.549 170.847 122.853 166.863 122.853C162.879 122.853 159.891 117.873 155.907 111.897L139.971 87.9935C138.311 85.6695 133.398 80.8224 127.023 80.0256C120.649 79.2288 115.735 82.0176 111.088 88.9895C106.44 95.9614 88.1798 133.809 88.1798 133.809C86.1878 138.457 81.0746 146.757 76.2279 146.757C71.248 146.757 66.268 136.797 64.2761 133.809C62.2841 130.821 45.3523 95.9614 45.3523 95.9614C42.3643 91.3135 35.7908 81.6192 33.4004 80.0256C30.4125 78.0336 25.6712 73.5476 19.6953 73.5476C13.7194 73.5476 10.4927 73.0537 8.50072 75.0456" stroke="url(#paint0_linear_920_4341)" stroke-width="15.6724" stroke-linecap="round"/>
<defs>
<linearGradient id="paint0_linear_920_4341" x1="110.092" y1="146.757" x2="185.655" y2="43.8819" gradientUnits="userSpaceOnUse">
<stop stop-color="#61A9FD"/>
<stop offset="1" stop-color="#61A9FD" stop-opacity="0"/>
</linearGradient>
</defs>
</svg>
