<svg width="219" height="51" viewBox="0 0 219 51" fill="none" xmlns="http://www.w3.org/2000/svg">
<path d="M124.532 38.0701L116.686 14.3944H121.252L128.253 35.804H125.987L133.259 14.3944H137.317L144.386 35.804H142.188L149.358 14.3944H153.552L145.705 38.0701H141.038L134.578 18.7575H135.795L129.234 38.0701H124.532ZM163.491 38.3068C161.642 38.3068 159.996 37.9122 158.553 37.123C157.11 36.3113 155.971 35.2064 155.137 33.8084C154.303 32.4105 153.886 30.8208 153.886 29.0395C153.886 27.2356 154.303 25.646 155.137 24.2705C155.971 22.8725 157.11 21.7789 158.553 20.9898C159.996 20.2006 161.642 19.806 163.491 19.806C165.363 19.806 167.02 20.2006 168.463 20.9898C169.929 21.7789 171.067 22.8613 171.879 24.2367C172.713 25.6122 173.131 27.2131 173.131 29.0395C173.131 30.8208 172.713 32.4105 171.879 33.8084C171.067 35.2064 169.929 36.3113 168.463 37.123C167.02 37.9122 165.363 38.3068 163.491 38.3068ZM163.491 34.6878C164.528 34.6878 165.453 34.4623 166.265 34.0114C167.076 33.5604 167.708 32.9065 168.159 32.0497C168.632 31.1928 168.869 30.1894 168.869 29.0395C168.869 27.867 168.632 26.8636 168.159 26.0293C167.708 25.1725 167.076 24.5186 166.265 24.0676C165.453 23.6166 164.54 23.3911 163.525 23.3911C162.488 23.3911 161.563 23.6166 160.752 24.0676C159.962 24.5186 159.331 25.1725 158.858 26.0293C158.384 26.8636 158.147 27.867 158.147 29.0395C158.147 30.1894 158.384 31.1928 158.858 32.0497C159.331 32.9065 159.962 33.5604 160.752 34.0114C161.563 34.4623 162.477 34.6878 163.491 34.6878ZM177.173 38.0701V20.0089H181.198V24.9808L180.725 23.5264C181.266 22.3088 182.112 21.3844 183.262 20.753C184.434 20.1216 185.888 19.806 187.625 19.806V23.8308C187.444 23.7857 187.275 23.7632 187.117 23.7632C186.959 23.7406 186.802 23.7294 186.644 23.7294C185.043 23.7294 183.769 24.2029 182.822 25.1499C181.875 26.0744 181.401 27.4611 181.401 29.3101V38.0701H177.173ZM194.661 34.0452L194.762 28.7351L204.199 20.0089H209.272L201.256 28.0586L199.024 29.9189L194.661 34.0452ZM191.211 38.0701V12.9738H195.439V38.0701H191.211ZM204.842 38.0701L198.246 29.9189L200.918 26.5366L209.983 38.0701H204.842Z" fill="#F5F5F5"/>
<path d="M99.9182 7.20454C97.5673 7.83146 93.8058 9.55548 91.925 11.4362C90.3741 12.9871 85.6559 22.8775 83.4617 27.4226C82.678 29.1466 80.6405 32.5947 78.7598 32.5947C76.879 32.5947 75.4685 30.2437 73.5877 27.4226L66.0647 16.1381C65.2811 15.041 62.9615 12.7527 59.9523 12.3766C56.9431 12.0004 54.6235 13.317 52.4293 16.6083C50.2351 19.8996 41.615 37.7667 41.615 37.7667C40.6746 39.9609 38.2608 43.8791 35.9727 43.8791C33.6218 43.8791 31.2709 39.1773 30.3305 37.7667C29.3901 36.3561 21.3969 19.8996 21.3969 19.8996C19.9864 17.7054 16.8831 13.1289 15.7547 12.3766C14.3441 11.4362 12.1059 9.31844 9.28476 9.31844C6.46363 9.31844 4.94038 9.08528 4.00001 10.0257" stroke="url(#paint0_linear_542_2340)" stroke-width="7.39865" stroke-linecap="round"/>
<defs>
<linearGradient id="paint0_linear_542_2340" x1="51.9591" y1="43.8791" x2="87.6312" y2="-4.68615" gradientUnits="userSpaceOnUse">
<stop stop-color="#61A9FD"/>
<stop offset="1" stop-color="#61A9FD" stop-opacity="0"/>
</linearGradient>
</defs>
</svg>
