<svg width="546" height="452" viewBox="0 0 546 452" fill="none" xmlns="http://www.w3.org/2000/svg">
<g clip-path="url(#clip0_1737_23415)">
<path d="M226.23 452.46C351.174 452.46 452.46 351.174 452.46 226.23C452.46 101.287 351.174 0 226.23 0C101.287 0 0 101.287 0 226.23C0 351.174 101.287 452.46 226.23 452.46Z" fill="url(#paint0_linear_1737_23415)"/>
<g filter="url(#filter0_d_1737_23415)">
<path d="M123.676 102.57H530.89C534.89 102.57 538.726 104.159 541.555 106.988C544.383 109.816 545.972 113.652 545.972 117.652V193.062C545.972 197.062 544.383 200.899 541.555 203.727C538.726 206.555 534.89 208.144 530.89 208.144H123.676C119.676 208.144 115.84 206.555 113.011 203.727C110.183 200.899 108.594 197.062 108.594 193.062V117.652C108.594 113.652 110.183 109.816 113.011 106.988C115.84 104.159 119.676 102.57 123.676 102.57V102.57Z" fill="white"/>
</g>
<path d="M316.726 126.703H238.299C233.301 126.703 229.25 130.755 229.25 135.752C229.25 140.75 233.301 144.802 238.299 144.802H316.726C321.723 144.802 325.775 140.75 325.775 135.752C325.775 130.755 321.723 126.703 316.726 126.703Z" fill="#E0E5F2"/>
<path d="M371.021 165.914H238.299C233.301 165.914 229.25 169.966 229.25 174.963C229.25 179.961 233.301 184.012 238.299 184.012H371.021C376.019 184.012 380.07 179.961 380.07 174.963C380.07 169.966 376.019 165.914 371.021 165.914Z" fill="#E0E5F2"/>
<path d="M205.116 155.355C205.116 131.199 185.534 111.617 161.378 111.617C137.223 111.617 117.641 131.199 117.641 155.355C117.641 179.511 137.223 199.093 161.378 199.093C185.534 199.093 205.116 179.511 205.116 155.355Z" fill="#4318FF"/>
<path d="M158.661 169.512C162.406 169.512 166.043 168.259 168.993 165.953L178.268 175.229L181.251 172.245L171.973 162.967C174.304 159.953 175.546 156.238 175.495 152.428C175.445 148.618 174.106 144.938 171.696 141.986C169.286 139.035 165.948 136.987 162.225 136.176C158.502 135.364 154.614 135.838 151.195 137.519C147.775 139.201 145.026 141.991 143.396 145.434C141.765 148.878 141.349 152.773 142.215 156.483C143.081 160.194 145.178 163.502 148.165 165.868C151.151 168.234 154.851 169.518 158.661 169.512V169.512ZM158.661 139.97C161.167 139.97 163.617 140.713 165.7 142.105C167.783 143.497 169.407 145.476 170.366 147.791C171.325 150.105 171.576 152.653 171.087 155.11C170.598 157.568 169.392 159.825 167.62 161.597C165.848 163.369 163.591 164.575 161.133 165.064C158.676 165.553 156.128 165.302 153.813 164.343C151.498 163.384 149.52 161.761 148.128 159.677C146.736 157.594 145.993 155.144 145.993 152.639C145.993 149.279 147.327 146.056 149.703 143.68C152.079 141.305 155.301 139.97 158.661 139.97V139.97Z" fill="white"/>
<g filter="url(#filter1_d_1737_23415)">
<path d="M485.644 238.297H78.4297C70.1001 238.297 63.3477 245.049 63.3477 253.379V328.789C63.3477 337.118 70.1001 343.871 78.4297 343.871H485.644C493.973 343.871 500.726 337.118 500.726 328.789V253.379C500.726 245.049 493.973 238.297 485.644 238.297Z" fill="white"/>
</g>
<path d="M271.48 262.43H193.053C188.055 262.43 184.004 266.481 184.004 271.479C184.004 276.477 188.055 280.528 193.053 280.528H271.48C276.477 280.528 280.529 276.477 280.529 271.479C280.529 266.481 276.477 262.43 271.48 262.43Z" fill="#E0E5F2"/>
<path d="M325.775 301.641H193.053C188.055 301.641 184.004 305.692 184.004 310.69C184.004 315.688 188.055 319.739 193.053 319.739H325.775C330.773 319.739 334.824 315.688 334.824 310.69C334.824 305.692 330.773 301.641 325.775 301.641Z" fill="#E0E5F2"/>
<path d="M159.87 291.089C159.87 266.934 140.288 247.352 116.132 247.352C91.9766 247.352 72.3945 266.934 72.3945 291.089C72.3945 315.245 91.9766 334.827 116.132 334.827C140.288 334.827 159.87 315.245 159.87 291.089Z" fill="#4318FF"/>
<path d="M113.415 305.255C117.16 305.254 120.796 304.001 123.747 301.695L133.022 310.971L136.005 307.987L126.727 298.709C129.058 295.695 130.3 291.98 130.249 288.17C130.199 284.361 128.86 280.68 126.45 277.729C124.04 274.777 120.702 272.729 116.979 271.918C113.256 271.107 109.368 271.58 105.949 273.262C102.529 274.943 99.7803 277.733 98.1496 281.177C96.5189 284.62 96.1026 288.515 96.9686 292.225C97.8347 295.936 99.9319 299.244 102.919 301.61C105.905 303.976 109.605 305.261 113.415 305.255V305.255ZM113.415 275.712C115.921 275.712 118.37 276.455 120.454 277.847C122.537 279.239 124.161 281.218 125.12 283.533C126.079 285.848 126.33 288.395 125.841 290.852C125.352 293.31 124.145 295.567 122.374 297.339C120.602 299.111 118.344 300.317 115.887 300.806C113.429 301.295 110.882 301.044 108.567 300.085C106.252 299.127 104.274 297.503 102.882 295.419C101.49 293.336 100.747 290.887 100.747 288.381C100.747 285.021 102.081 281.798 104.457 279.423C106.833 277.047 110.055 275.712 113.415 275.712V275.712Z" fill="white"/>
</g>
<defs>
<filter id="filter0_d_1737_23415" x="90.4953" y="93.5211" width="473.576" height="141.767" filterUnits="userSpaceOnUse" color-interpolation-filters="sRGB">
<feFlood flood-opacity="0" result="BackgroundImageFix"/>
<feColorMatrix in="SourceAlpha" type="matrix" values="0 0 0 0 0 0 0 0 0 0 0 0 0 0 0 0 0 0 127 0" result="hardAlpha"/>
<feOffset dy="9.04921"/>
<feGaussianBlur stdDeviation="9.04921"/>
<feColorMatrix type="matrix" values="0 0 0 0 0 0 0 0 0 0 0 0 0 0 0 0 0 0 0.161 0"/>
<feBlend mode="normal" in2="BackgroundImageFix" result="effect1_dropShadow_1737_23415"/>
<feBlend mode="normal" in="SourceGraphic" in2="effect1_dropShadow_1737_23415" result="shape"/>
</filter>
<filter id="filter1_d_1737_23415" x="45.2492" y="229.248" width="473.576" height="141.767" filterUnits="userSpaceOnUse" color-interpolation-filters="sRGB">
<feFlood flood-opacity="0" result="BackgroundImageFix"/>
<feColorMatrix in="SourceAlpha" type="matrix" values="0 0 0 0 0 0 0 0 0 0 0 0 0 0 0 0 0 0 127 0" result="hardAlpha"/>
<feOffset dy="9.04921"/>
<feGaussianBlur stdDeviation="9.04921"/>
<feColorMatrix type="matrix" values="0 0 0 0 0 0 0 0 0 0 0 0 0 0 0 0 0 0 0.161 0"/>
<feBlend mode="normal" in2="BackgroundImageFix" result="effect1_dropShadow_1737_23415"/>
<feBlend mode="normal" in="SourceGraphic" in2="effect1_dropShadow_1737_23415" result="shape"/>
</filter>
<linearGradient id="paint0_linear_1737_23415" x1="585.463" y1="331.733" x2="-25.1232" y2="102.11" gradientUnits="userSpaceOnUse">
<stop stop-color="#868CFF"/>
<stop offset="1" stop-color="#4318FF"/>
</linearGradient>
<clipPath id="clip0_1737_23415">
<rect width="546" height="452" fill="white"/>
</clipPath>
</defs>
</svg>
